<svg class="railroad-diagram" width="459" height="170" viewBox="0 0 459 170" xmlns="http://www.w3.org/2000/svg" xmlns:xlink="http://www.w3.org/1999/xlink">
    <g transform="translate(.5 .5)">
        <g>
            <path d="M20 30v20m10 -20v20m-10 -10h20"></path>
        </g>
        <g>
            <path d="M40 40h0"></path>
            <path d="M419 40h0"></path>
            <path d="M40 40h20"></path>
            <g>
                <path d="M60 40h0"></path>
                <path d="M399 40h0"></path>
                <g class="terminal ">
                    <path d="M60 40h0"></path>
                    <path d="M88.5 40h0"></path>
                    <rect x="60" y="29" width="28.5" height="22" rx="10" ry="10"></rect>
                    <text x="74.25" y="44">{</text>
                </g>
                <path d="M88.5 40h10"></path>
                <g>
                    <path d="M98.5 40h0"></path>
                    <path d="M360.5 40h0"></path>
                    <path d="M98.5 40a10 10 0 0 0 10 -10v0a10 10 0 0 1 10 -10"></path>
                    <g>
                        <path d="M118.5 20h222"></path>
                    </g>
                    <path d="M340.5 20a10 10 0 0 1 10 10v0a10 10 0 0 0 10 10"></path>
                    <path d="M98.5 40h20"></path>
                    <g>
                        <path d="M118.5 40h0"></path>
                        <path d="M340.5 40h0"></path>
                        <path d="M118.5 40h10"></path>
                        <g>
                            <path d="M128.5 40h0"></path>
                            <path d="M330.5 40h0"></path>
                            <g class="non-terminal ">
                                <path d="M128.5 40h0"></path>
                                <path d="M199.5 40h0"></path>
                                <rect x="128.5" y="29" width="71" height="22"></rect>
                                <text x="164" y="44">string</text>
                            </g>
                            <path d="M199.5 40h10"></path>
                            <path d="M209.5 40h10"></path>
                            <g class="terminal ">
                                <path d="M219.5 40h0"></path>
                                <path d="M248 40h0"></path>
                                <rect x="219.5" y="29" width="28.5" height="22" rx="10" ry="10"></rect>
                                <text x="233.75" y="44">:</text>
                            </g>
                            <path d="M248 40h10"></path>
                            <path d="M258 40h10"></path>
                            <g class="non-terminal ">
                                <path d="M268 40h0"></path>
                                <path d="M330.5 40h0"></path>
                                <rect x="268" y="29" width="62.5" height="22"></rect>
                                <text x="299.25" y="44">wert</text>
                            </g>
                        </g>
                        <path d="M330.5 40h10"></path>
                        <path d="M128.5 40a10 10 0 0 0 -10 10v10a10 10 0 0 0 10 10"></path>
                        <g class="terminal ">
                            <path d="M128.5 70h86.75"></path>
                            <path d="M243.75 70h86.75"></path>
                            <rect x="215.25" y="59" width="28.5" height="22" rx="10" ry="10"></rect>
                            <text x="229.5" y="74">,</text>
                        </g>
                        <path d="M330.5 70a10 10 0 0 0 10 -10v-10a10 10 0 0 0 -10 -10"></path>
                    </g>
                    <path d="M340.5 40h20"></path>
                </g>
                <path d="M360.5 40h10"></path>
                <g class="terminal ">
                    <path d="M370.5 40h0"></path>
                    <path d="M399 40h0"></path>
                    <rect x="370.5" y="29" width="28.5" height="22" rx="10" ry="10"></rect>
                    <text x="384.75" y="44">}</text>
                </g>
            </g>
            <path d="M399 40h20"></path>
            <path d="M40 40a10 10 0 0 1 10 10v49a10 10 0 0 0 10 10"></path>
            <g>
                <path d="M60 109h69.75"></path>
                <path d="M329.25 109h69.75"></path>
                <g class="terminal ">
                    <path d="M129.75 109h0"></path>
                    <path d="M158.25 109h0"></path>
                    <rect x="129.75" y="98" width="28.5" height="22" rx="10" ry="10"></rect>
                    <text x="144" y="113">&#91;</text>
                </g>
                <path d="M158.25 109h10"></path>
                <g>
                    <path d="M168.25 109h0"></path>
                    <path d="M290.75 109h0"></path>
                    <path d="M168.25 109a10 10 0 0 0 10 -10v0a10 10 0 0 1 10 -10"></path>
                    <g>
                        <path d="M188.25 89h82.5"></path>
                    </g>
                    <path d="M270.75 89a10 10 0 0 1 10 10v0a10 10 0 0 0 10 10"></path>
                    <path d="M168.25 109h20"></path>
                    <g>
                        <path d="M188.25 109h0"></path>
                        <path d="M270.75 109h0"></path>
                        <path d="M188.25 109h10"></path>
                        <g class="non-terminal ">
                            <path d="M198.25 109h0"></path>
                            <path d="M260.75 109h0"></path>
                            <rect x="198.25" y="98" width="62.5" height="22"></rect>
                            <text x="229.5" y="113">wert</text>
                        </g>
                        <path d="M260.75 109h10"></path>
                        <path d="M198.25 109a10 10 0 0 0 -10 10v10a10 10 0 0 0 10 10"></path>
                        <g class="terminal ">
                            <path d="M198.25 139h17"></path>
                            <path d="M243.75 139h17"></path>
                            <rect x="215.25" y="128" width="28.5" height="22" rx="10" ry="10"></rect>
                            <text x="229.5" y="143">,</text>
                        </g>
                        <path d="M260.75 139a10 10 0 0 0 10 -10v-10a10 10 0 0 0 -10 -10"></path>
                    </g>
                    <path d="M270.75 109h20"></path>
                </g>
                <path d="M290.75 109h10"></path>
                <g class="terminal ">
                    <path d="M300.75 109h0"></path>
                    <path d="M329.25 109h0"></path>
                    <rect x="300.75" y="98" width="28.5" height="22" rx="10" ry="10"></rect>
                    <text x="315" y="113">&#93;</text>
                </g>
            </g>
            <path d="M399 109a10 10 0 0 0 10 -10v-49a10 10 0 0 1 10 -10"></path>
        </g>
        <path d="M 419 40 h 20 m -10 -10 v 20 m 10 -20 v 20"></path>
    </g>
    <style>
        svg {
        background-color: hsl(30,20%,95%);
        }
        path {
        stroke-width: 3;
        stroke: black;
        fill: rgba(0,0,0,0);
        }
        text {
        font: bold 14px monospace;
        text-anchor: middle;
        white-space: pre;
        }
        text.diagram-text {
        font-size: 12px;
        }
        text.diagram-arrow {
        font-size: 16px;
        }
        text.label {
        text-anchor: start;
        }
        text.comment {
        font: italic 12px monospace;
        }
        g.non-terminal text {
        /&#42;font-style: italic;&#42;/
        }
        rect {
        stroke-width: 3;
        stroke: black;
        fill: hsl(120,100%,90%);
        }
        rect.group-box {
        stroke: gray;
        stroke-dasharray: 10 5;
        fill: none;
        }
        path.diagram-text {
        stroke-width: 3;
        stroke: black;
        fill: white;
        cursor: help;
        }
        g.diagram-text:hover path.diagram-text {
        fill: #eee;
        }</style>
</svg>
